<?xml version="1.0" standalone="no"?>
<!DOCTYPE svg PUBLIC "-//W3C//DTD SVG 20010904//EN"
 "http://www.w3.org/TR/2001/REC-SVG-20010904/DTD/svg10.dtd">
<svg version="1.0" xmlns="http://www.w3.org/2000/svg"
 width="530.000000pt" height="530.000000pt" viewBox="0 0 530.000000 530.000000"
 preserveAspectRatio="xMidYMid meet">
<metadata>
Created by potrace 1.14, written by Peter Selinger 2001-2017
</metadata>
<g transform="translate(0.000000,530.000000) scale(0.100000,-0.100000)"
fill="#000000" stroke="none">
<path d="M2625 4860 c-3 -5 0 -7 8 -4 8 3 17 2 20 -3 3 -4 -10 -8 -28 -8 -18
0 -31 3 -29 6 2 4 -12 3 -31 -1 -19 -4 -36 -5 -39 -3 -2 3 -10 1 -17 -3 -7 -4
-33 -9 -58 -11 -49 -3 -66 -5 -166 -28 -38 -8 -71 -20 -73 -25 -2 -6 -10 -10
-18 -10 -8 0 -14 -4 -14 -9 0 -5 -9 -11 -21 -14 -12 -3 -18 -10 -15 -15 3 -6
-1 -13 -10 -16 -8 -3 -12 -2 -9 4 3 6 -1 7 -9 4 -9 -3 -13 -10 -10 -15 3 -5
-4 -9 -16 -9 -12 0 -19 -4 -15 -9 3 -6 14 -8 25 -6 12 2 18 0 15 -5 -3 -4 -17
-7 -32 -5 l-27 3 24 -21 c25 -20 25 -20 3 -14 -13 3 -26 1 -29 -4 -3 -5 0 -9
5 -9 6 0 11 -4 11 -9 0 -5 -15 -8 -34 -7 -33 1 -34 0 -19 -16 9 -10 20 -15 26
-11 6 4 7 1 2 -6 -5 -9 -10 -10 -18 -2 -13 13 -28 15 -26 4 4 -27 -1 -35 -16
-23 -13 11 -14 10 -9 -3 4 -13 1 -15 -17 -12 l-22 4 21 -20 c12 -11 22 -27 21
-37 0 -13 -3 -11 -9 6 -5 12 -12 22 -15 22 -4 0 -4 -4 0 -9 3 -5 -2 -17 -11
-25 -8 -9 -11 -16 -5 -16 19 0 12 -18 -9 -25 -11 -3 -20 -11 -20 -17 0 -5 7
-7 16 -4 9 3 12 2 9 -5 -4 -5 -16 -7 -27 -3 -14 4 -18 2 -14 -5 4 -6 1 -11 -6
-11 -9 0 -9 -3 2 -10 10 -6 11 -10 3 -10 -7 0 -12 -6 -10 -12 1 -7 -4 -12 -12
-10 -10 2 -12 -1 -5 -10 5 -7 9 -37 8 -65 0 -29 2 -53 6 -53 4 0 7 -7 7 -15 0
-8 -4 -12 -8 -9 -4 2 -7 -5 -6 -16 1 -11 6 -20 12 -20 6 0 7 -3 0 -8 -13 -9
-18 -32 -7 -32 13 0 11 -33 -2 -49 -8 -10 -8 -13 0 -8 7 4 11 -7 12 -30 1 -19
4 -44 7 -54 4 -11 2 -19 -6 -19 -9 0 -9 -3 0 -14 9 -10 9 -16 1 -21 -8 -5 -8
-11 1 -21 6 -8 8 -14 4 -14 -4 0 -3 -6 3 -13 14 -16 -1 -42 -18 -32 -9 5 -11
4 -6 -3 5 -8 0 -12 -13 -12 -10 0 -22 -6 -24 -12 -4 -10 -6 -10 -6 0 -1 6 -6
12 -12 12 -5 0 -8 -4 -5 -9 4 -5 1 -11 -6 -13 -7 -3 -13 -18 -13 -35 0 -18 3
-29 7 -27 7 5 12 -26 11 -63 -1 -7 3 -13 8 -13 5 0 9 -11 9 -25 0 -14 5 -25
11 -25 5 0 7 -4 4 -10 -3 -5 -1 -10 6 -10 8 0 8 -4 -1 -16 -11 -12 -11 -15 1
-12 9 2 13 -4 11 -14 -2 -10 3 -18 9 -18 7 0 10 -3 6 -6 -3 -4 1 -13 9 -21 11
-11 12 -19 4 -28 -8 -10 -8 -15 1 -21 8 -5 9 -3 4 6 -5 9 -4 11 4 6 7 -5 9
-16 5 -28 -4 -14 -2 -18 5 -14 14 9 10 -16 -4 -26 -6 -5 -6 -8 1 -8 7 0 9 -11
6 -25 -3 -16 0 -25 9 -25 7 0 9 -3 6 -7 -4 -3 -1 -13 6 -21 10 -13 9 -14 -3
-7 -13 8 -13 6 -2 -8 8 -9 11 -21 7 -27 -3 -5 -1 -10 4 -10 6 0 11 -9 11 -20
0 -18 40 -51 40 -33 0 4 5 1 10 -7 7 -11 10 -11 10 -2 0 7 4 11 9 8 5 -3 14 1
21 9 9 11 16 12 31 2 10 -6 19 -17 19 -24 0 -7 4 -13 9 -13 5 0 8 -11 6 -25
-1 -14 2 -28 7 -31 4 -3 6 -10 3 -15 -4 -5 -1 -9 6 -9 8 0 8 -4 -1 -15 -10
-12 -9 -15 6 -15 16 0 17 -2 4 -10 -8 -5 -10 -10 -4 -10 6 0 11 -7 11 -15 0
-8 -4 -15 -8 -15 -5 0 -6 -7 -3 -15 4 -10 0 -15 -11 -15 -9 0 -14 -4 -10 -9 3
-5 -4 -12 -15 -16 -11 -3 -20 -10 -20 -15 0 -5 -9 -12 -20 -15 -11 -4 -18 -11
-15 -16 6 -8 -8 -13 -28 -10 -4 0 -6 -2 -5 -6 4 -10 -39 -53 -52 -53 -5 0 -10
-7 -10 -16 0 -8 -4 -13 -8 -10 -10 6 -42 -29 -42 -45 0 -6 -6 -9 -13 -6 -8 3
-20 -3 -27 -13 -7 -10 -22 -17 -32 -15 -10 2 -16 0 -13 -6 5 -7 -15 -12 -41
-8 -4 0 -10 -4 -13 -9 -3 -6 -29 -12 -56 -15 -28 -3 -58 -9 -68 -12 -10 -5
-17 -2 -17 5 0 9 -4 9 -13 2 -6 -6 -27 -9 -45 -8 -17 1 -32 -2 -32 -6 0 -5 -9
-4 -19 2 -14 7 -22 7 -26 0 -4 -6 -10 -8 -15 -5 -5 3 -11 1 -15 -4 -3 -6 -12
-8 -20 -4 -8 3 -15 -1 -15 -8 0 -7 -3 -9 -7 -6 -3 4 -13 1 -21 -6 -12 -9 -14
-9 -8 0 4 7 -6 5 -23 -5 -17 -9 -31 -20 -31 -24 0 -3 -9 -4 -20 -1 -13 3 -20
0 -20 -8 0 -11 -2 -11 -10 1 -9 13 -12 13 -24 -3 -11 -14 -15 -15 -19 -5 -4
10 -6 10 -6 1 -1 -7 -10 -13 -21 -13 -11 0 -20 -6 -20 -12 0 -10 -2 -10 -9 0
-6 11 -10 10 -15 -3 -3 -10 -12 -15 -21 -11 -8 3 -15 1 -15 -5 0 -6 -4 -7 -10
-4 -5 3 -10 1 -10 -5 0 -7 -7 -9 -16 -6 -8 3 -12 2 -9 -4 6 -9 -8 -14 -28 -11
-4 0 -7 -2 -7 -6 0 -5 -24 -7 -52 -6 -52 1 -83 -11 -72 -28 3 -5 1 -8 -4 -7
-5 2 -22 -13 -38 -32 -16 -19 -22 -30 -14 -25 8 4 5 -3 -8 -17 -13 -14 -24
-35 -25 -47 -1 -11 -4 -21 -8 -21 -3 0 -11 -12 -17 -26 -10 -20 -10 -24 0 -18
10 5 10 4 1 -6 -10 -11 -10 -17 0 -29 10 -12 9 -13 -2 -6 -11 6 -12 5 -5 -6
13 -21 14 -42 2 -56 -8 -10 -7 -13 3 -13 10 0 10 -3 3 -8 -6 -4 -10 -15 -8
-24 1 -10 -2 -18 -7 -18 -5 0 -9 -7 -9 -15 0 -8 -7 -15 -16 -15 -10 0 -14 -5
-10 -16 3 -8 2 -12 -4 -9 -6 3 -10 1 -10 -5 0 -6 -4 -8 -10 -5 -5 3 -10 -1
-10 -9 0 -9 -4 -16 -9 -16 -6 0 -8 -9 -6 -21 3 -15 0 -19 -10 -15 -9 3 -12 0
-8 -10 3 -7 0 -14 -5 -14 -6 0 -9 -9 -7 -20 2 -11 0 -18 -6 -15 -8 6 -13 -8
-10 -27 0 -5 -4 -8 -11 -8 -6 0 -9 -3 -5 -6 3 -3 -3 -15 -13 -27 -11 -11 -17
-23 -15 -27 3 -5 -2 -11 -11 -14 -9 -4 -14 -13 -10 -21 3 -8 0 -14 -7 -12 -7
1 -11 -5 -11 -14 1 -12 -5 -14 -24 -11 -19 4 -23 2 -17 -9 7 -12 6 -12 -7 -1
-11 9 -18 10 -23 2 -3 -6 -10 -8 -15 -5 -4 3 -11 -2 -14 -11 -3 -8 -11 -12
-17 -8 -7 4 -10 3 -7 -2 3 -5 -8 -21 -23 -36 -16 -15 -29 -25 -29 -22 0 3 -7
-1 -15 -10 -8 -8 -15 -17 -15 -21 0 -10 -89 -93 -95 -87 -3 3 -5 0 -5 -7 0 -8
-7 -11 -15 -7 -8 3 -14 0 -12 -6 1 -5 -7 -12 -18 -14 -11 -1 -27 -12 -37 -23
-9 -12 -21 -21 -27 -21 -5 0 -14 -8 -20 -17 -5 -10 -12 -17 -15 -15 -12 5 -56
-10 -51 -18 3 -5 -6 -7 -20 -5 -14 1 -25 -2 -25 -7 0 -5 -4 -7 -9 -4 -5 3 -12
-1 -15 -10 -3 -9 -6 -272 -6 -585 l0 -569 2625 0 c1841 0 2625 3 2625 11 0 5
6 7 13 3 9 -6 9 -5 0 7 -6 8 -10 29 -9 46 1 18 -3 35 -8 37 -6 2 -5 5 3 5 11
1 10 6 -3 26 -9 13 -17 40 -18 60 -2 19 -5 35 -8 35 -3 0 -6 11 -6 25 -1 15 2
22 9 18 6 -4 7 -1 1 8 -8 13 -12 35 -17 104 -1 17 -6 35 -10 42 -4 6 -1 14 5
17 10 5 10 7 1 12 -9 4 -10 11 -3 25 8 14 7 19 -2 19 -8 0 -13 12 -12 32 1 18
-4 39 -10 47 -8 11 -8 13 2 7 6 -4 12 -3 12 3 0 5 -5 13 -10 16 -7 4 -7 12 0
25 7 13 7 21 0 25 -5 3 -10 11 -10 16 0 6 6 7 13 3 9 -6 9 -5 0 7 -10 12 -10
18 -1 27 9 9 9 12 -1 12 -8 0 -12 13 -10 37 2 47 -10 111 -23 119 -6 4 -5 10
3 15 11 7 11 9 1 9 -7 0 -10 5 -7 10 3 6 1 10 -6 10 -7 0 -8 4 -2 13 12 16 14
57 3 57 -5 0 -7 6 -4 14 3 7 -1 20 -9 27 -8 8 -13 22 -11 32 1 9 -2 17 -7 17
-6 0 -8 4 -5 9 3 5 0 11 -8 14 -9 3 -12 15 -9 31 3 14 1 26 -4 26 -5 0 -9 9
-9 20 0 11 5 20 10 20 5 0 1 7 -10 16 -10 8 -12 12 -4 8 12 -6 13 -4 3 7 -15
16 -17 33 -3 24 6 -3 7 1 4 9 -3 9 -10 16 -15 16 -5 0 -9 13 -9 28 0 15 -6 34
-12 41 -11 11 -10 12 2 6 13 -8 13 -7 1 9 -8 10 -16 32 -16 49 -1 18 -6 41
-12 52 -6 11 -11 23 -12 28 -1 4 -1 8 -2 10 -6 17 -4 47 3 47 5 0 2 7 -6 16
-19 19 -21 28 -3 18 9 -6 9 -5 0 8 -7 8 -10 18 -6 21 3 4 1 7 -5 7 -7 0 -12 7
-12 15 0 9 -7 18 -15 21 -8 4 -12 10 -9 15 3 5 0 9 -5 9 -6 0 -11 6 -11 14 0
7 -7 19 -15 26 -8 7 -12 16 -9 22 3 5 -3 26 -15 47 -11 22 -17 42 -14 45 4 3
-2 6 -12 6 -10 0 -15 3 -12 6 3 4 1 16 -5 28 -7 11 -13 32 -14 46 -1 14 -2 33
-3 43 0 10 -5 15 -11 12 -5 -3 -7 0 -4 8 3 8 -2 22 -11 31 -9 9 -18 24 -20 34
-1 9 -8 16 -15 14 -6 -1 -9 2 -6 7 4 5 0 16 -8 24 -8 8 -12 17 -9 21 4 3 -3 6
-15 6 -11 0 -23 4 -27 9 -3 5 -30 9 -59 8 -31 -1 -52 2 -48 7 3 5 -2 7 -11 3
-10 -3 -17 -2 -17 3 0 6 -6 9 -12 8 -7 -2 -11 4 -10 12 2 8 0 12 -3 8 -4 -4
-21 0 -37 8 -21 11 -28 12 -22 3 4 -7 -8 -2 -26 11 -18 13 -30 17 -25 9 6 -11
5 -12 -6 -1 -7 6 -23 12 -36 12 -13 0 -23 5 -23 11 0 5 -4 7 -10 4 -5 -3 -10
0 -10 7 0 9 -3 9 -10 -2 -6 -9 -10 -10 -10 -3 0 6 -13 14 -30 18 -16 4 -30 11
-30 16 0 5 -3 8 -7 8 -28 -5 -53 2 -47 13 5 8 2 9 -9 5 -10 -3 -17 -2 -17 3 0
5 -7 6 -17 3 -11 -5 -14 -3 -8 6 5 10 2 11 -14 6 -14 -4 -21 -2 -21 7 0 10 -3
9 -10 -2 -5 -8 -10 -10 -10 -3 0 6 -11 10 -25 9 -13 -2 -22 1 -19 5 3 5 -1 9
-9 9 -18 0 -75 28 -83 42 -4 6 -10 5 -15 -3 -7 -11 -9 -11 -9 -1 0 7 -4 10
-10 7 -5 -3 -10 -1 -10 4 0 6 -9 11 -21 11 -13 0 -18 4 -13 12 5 8 2 9 -9 5
-9 -3 -22 -1 -29 6 -7 7 -20 12 -28 12 -8 0 -23 9 -32 20 -10 11 -17 16 -18
12 0 -4 -11 3 -24 15 -13 13 -21 27 -18 32 3 5 0 6 -7 2 -7 -5 -19 0 -27 10
-9 11 -12 12 -8 4 5 -8 -6 -4 -23 10 -17 14 -28 28 -26 33 2 4 -3 7 -11 7 -15
0 -42 38 -38 53 1 4 -4 6 -10 5 -7 -2 -12 3 -10 10 1 6 -3 12 -9 12 -14 0 -39
26 -39 41 0 7 -3 9 -7 6 -3 -4 -13 2 -20 13 -8 11 -18 18 -23 15 -4 -3 -11 6
-14 20 -4 14 -13 25 -21 25 -8 0 -14 6 -13 13 2 6 -3 11 -10 9 -6 -1 -11 1
-10 5 2 5 -1 9 -5 10 -5 1 -17 11 -26 22 -10 12 -23 21 -30 21 -6 0 -11 4 -11
9 0 5 -8 8 -17 7 -10 0 -17 5 -15 12 1 8 -2 11 -8 7 -14 -9 -52 4 -45 16 4 5
2 9 -3 9 -6 0 -8 10 -4 22 4 16 2 19 -9 13 -12 -7 -12 -6 -1 7 9 12 10 18 2
23 -8 5 -8 11 0 20 7 8 8 20 4 26 -4 8 -3 9 4 5 8 -5 12 1 12 14 0 12 5 18 10
15 6 -3 10 -1 10 5 0 6 5 8 10 5 6 -3 10 -2 10 4 0 6 7 8 15 5 8 -4 15 -1 15
5 0 6 11 11 25 11 14 0 28 7 31 15 4 8 10 13 14 10 5 -3 12 0 16 6 4 8 3 9 -4
5 -7 -4 -12 -2 -12 3 0 6 5 11 11 11 6 0 9 6 6 14 -3 7 0 19 6 25 6 6 7 11 3
11 -5 0 -2 8 5 17 8 9 9 14 3 10 -13 -7 -27 17 -16 27 10 10 9 46 -1 46 -5 0
-4 6 2 14 9 11 9 15 -1 19 -11 4 -11 8 0 26 7 12 10 27 6 33 -4 6 -3 9 2 6 14
-9 29 14 28 42 0 14 4 31 10 39 9 12 8 13 -4 7 -13 -7 -13 -6 0 6 16 14 20 84
7 105 -4 6 -3 15 3 18 8 5 7 11 -1 21 -9 11 -8 14 2 14 8 0 6 5 -6 13 -12 9
-15 19 -10 28 8 12 6 12 -8 0 -15 -11 -17 -11 -17 1 0 8 -10 23 -22 34 -12 10
-18 14 -15 7 5 -8 1 -8 -18 0 -14 7 -25 15 -25 20 0 4 -7 7 -16 7 -8 0 -12 5
-9 10 3 6 1 10 -5 10 -6 0 -8 5 -5 10 3 6 1 10 -5 10 -7 0 -10 7 -7 15 4 8 1
17 -5 21 -7 4 -6 9 3 15 10 6 11 9 2 9 -9 0 -13 16 -13 48 0 26 -5 53 -11 59
-8 8 -8 13 0 17 11 7 -4 44 -24 58 -6 5 -4 8 5 8 13 0 13 2 0 9 -8 6 -19 7
-25 5 -5 -3 -2 1 8 9 25 21 21 27 -20 28 -21 0 -32 3 -25 6 6 2 12 9 12 15 0
6 -7 8 -15 5 -8 -4 -17 -1 -21 5 -4 7 -3 8 4 4 7 -4 12 -1 12 8 0 9 5 16 11
16 5 0 7 -5 3 -12 -4 -7 -3 -8 5 -4 15 10 3 29 -15 22 -7 -3 -16 -1 -19 4 -4
6 -1 10 5 10 6 0 8 5 5 10 -3 6 -14 10 -23 10 -15 0 -15 -2 -2 -10 8 -5 11
-10 6 -10 -5 0 -3 -7 4 -15 11 -13 10 -14 -4 -9 -15 6 -21 22 -17 52 2 10 -17
17 -41 14 -3 -1 -9 5 -12 14 -4 10 -2 13 6 8 7 -4 8 -3 4 4 -4 7 -13 12 -19
12 -17 0 -20 52 -5 62 8 5 -2 6 -22 4 -19 -3 -30 -3 -23 0 10 4 10 8 0 19 -7
7 -16 10 -22 7 -5 -2 -5 1 2 8 9 10 7 16 -9 30 -17 13 -18 19 -8 25 8 5 11 4
6 -3 -3 -6 -2 -14 4 -17 6 -4 9 -1 8 6 -2 7 7 18 20 24 33 17 37 25 11 18 -16
-5 -20 -3 -14 7 5 8 3 11 -6 8 -8 -3 -13 -13 -13 -22 2 -22 -3 -20 -17 5 -8
15 -8 19 0 15 6 -4 11 -2 11 4 0 6 -7 13 -15 16 -8 4 -12 10 -9 16 3 5 0 8 -7
7 -8 -1 -32 3 -54 9 -30 9 -41 9 -47 -1 -5 -8 -8 -8 -8 -1 0 6 -12 10 -27 10
-16 -1 -34 3 -42 9 -12 8 -13 7 -6 -4 6 -10 -3 -8 -26 5 -19 12 -42 19 -51 17
-10 -3 -18 1 -18 7 0 9 -4 9 -13 2 -10 -8 -16 -6 -25 9 -13 21 -27 25 -37 9z
m301 -95 c1 -8 -3 -18 -8 -22 -6 -3 -8 -1 -4 5 3 6 2 13 -4 17 -6 4 -8 11 -4
16 7 12 17 4 20 -16z m47 -32 c-4 -11 -3 -14 5 -9 7 4 12 3 12 -3 0 -5 -9 -9
-19 -8 -11 0 -19 4 -19 7 2 18 -4 21 -19 9 -16 -13 -17 -12 -4 4 18 23 53 23
44 0z"/>
<path d="M3080 4587 c0 -9 4 -18 9 -21 5 -4 8 1 7 9 -3 21 -16 31 -16 12z"/>
<path d="M3190 4500 c0 -5 5 -10 11 -10 5 0 7 5 4 10 -3 6 -8 10 -11 10 -2 0
-4 -4 -4 -10z"/>
<path d="M3227 4499 c7 -7 15 -10 18 -7 3 3 -2 9 -12 12 -14 6 -15 5 -6 -5z"/>
<path d="M1896 4462 c-3 -4 4 -9 15 -9 23 -2 25 3 4 10 -8 4 -16 3 -19 -1z"/>
<path d="M3233 4435 c0 -8 4 -12 9 -9 5 3 6 10 3 15 -9 13 -12 11 -12 -6z"/>
</g>
</svg>
